<?xml version="1.0" encoding="UTF-8"?><svg id="Layer_2" xmlns="http://www.w3.org/2000/svg" viewBox="0 0 380.44 42.13"><defs><style>.cls-1{fill:#b46060;}</style></defs><g id="Layer_1-2"><g><path class="cls-1" d="m94.32,34.39c-1.44,0-2.72-.32-3.85-.97s-2.02-1.54-2.66-2.66v3.28h-4.21V7.75h4.82v10.73c.67-1.15,1.55-2.05,2.65-2.68,1.09-.64,2.37-.95,3.83-.95,1.22,0,2.34.26,3.35.79,1.01.53,1.88,1.24,2.61,2.12.73.89,1.3,1.93,1.69,3.13.4,1.2.59,2.46.59,3.78s-.22,2.64-.67,3.82c-.44,1.18-1.06,2.2-1.85,3.08s-1.73,1.57-2.81,2.07-2.24.76-3.49.76Zm-1.33-4.1c.77,0,1.48-.15,2.12-.45.65-.3,1.2-.7,1.66-1.21.46-.5.81-1.09,1.06-1.76.25-.67.38-1.39.38-2.16s-.12-1.5-.36-2.2c-.24-.7-.58-1.31-1.03-1.84-.44-.53-.97-.95-1.57-1.26-.6-.31-1.26-.47-1.98-.47-1.08,0-2.05.35-2.9,1.06-.85.71-1.51,1.58-1.96,2.61v4.5c.17.48.41.91.74,1.3.32.38.69.71,1.1.99.41.28.85.49,1.33.65.48.16.95.23,1.4.23Z"/><path class="cls-1" d="m106.42,12.53v-4.79h4.82v4.79h-4.82Zm0,21.49V15.16h4.82v18.86h-4.82Z"/><path class="cls-1" d="m133.13,34.03h-4.82v-10.58c0-1.51-.26-2.62-.79-3.31-.53-.7-1.26-1.04-2.2-1.04-.48,0-.97.1-1.48.29-.5.19-.98.46-1.42.81-.44.35-.85.76-1.21,1.24-.36.48-.62,1.01-.79,1.58v11.02h-4.82V15.16h4.36v3.49c.7-1.2,1.7-2.14,3.02-2.81,1.32-.67,2.81-1.01,4.46-1.01,1.18,0,2.14.22,2.88.65.74.43,1.32,1,1.73,1.69.41.7.69,1.49.85,2.38.16.89.23,1.79.23,2.7v11.77Z"/><path class="cls-1" d="m146.05,34.39c-1.54,0-2.92-.26-4.14-.79-1.22-.53-2.26-1.24-3.11-2.14-.85-.9-1.51-1.94-1.96-3.11-.46-1.18-.68-2.41-.68-3.71s.23-2.57.68-3.74c.46-1.18,1.11-2.21,1.96-3.11s1.89-1.61,3.11-2.14c1.22-.53,2.6-.79,4.14-.79s2.91.26,4.12.79c1.21.53,2.24,1.24,3.1,2.14.85.9,1.51,1.94,1.96,3.11.46,1.18.68,2.42.68,3.74s-.23,2.53-.68,3.71c-.46,1.18-1.1,2.21-1.94,3.11-.84.9-1.87,1.61-3.1,2.14-1.22.53-2.6.79-4.14.79Zm-4.93-9.76c0,.84.13,1.6.38,2.29s.6,1.28,1.04,1.78c.44.5.97.89,1.57,1.17.6.28,1.25.41,1.94.41s1.34-.14,1.94-.41c.6-.28,1.12-.67,1.57-1.17.44-.5.79-1.1,1.04-1.8.25-.7.38-1.46.38-2.3s-.13-1.57-.38-2.27c-.25-.7-.6-1.3-1.04-1.8-.44-.5-.97-.89-1.57-1.17-.6-.28-1.25-.41-1.94-.41s-1.34.14-1.94.43c-.6.29-1.12.68-1.57,1.19-.44.5-.79,1.1-1.04,1.8-.25.7-.38,1.45-.38,2.27Z"/><path class="cls-1" d="m157.97,24.59c0-1.32.23-2.57.68-3.74.46-1.18,1.12-2.21,1.98-3.1.86-.89,1.91-1.6,3.13-2.12,1.22-.53,2.6-.79,4.14-.79,2.06,0,3.82.44,5.27,1.33,1.45.89,2.54,2.05,3.26,3.49l-4.72,1.44c-.41-.7-.95-1.23-1.62-1.6-.67-.37-1.42-.56-2.23-.56-.7,0-1.34.14-1.94.41-.6.28-1.12.66-1.57,1.15-.44.49-.79,1.09-1.04,1.78-.25.7-.38,1.46-.38,2.3s.13,1.61.4,2.3c.26.7.62,1.3,1.06,1.8.44.5.97.89,1.57,1.17.6.28,1.24.41,1.91.41.86,0,1.66-.22,2.39-.65s1.24-.96,1.53-1.58l4.72,1.44c-.65,1.44-1.72,2.62-3.2,3.53-1.49.91-3.28,1.37-5.36,1.37-1.54,0-2.92-.26-4.14-.79-1.22-.53-2.27-1.24-3.13-2.14-.86-.9-1.53-1.94-2-3.13-.47-1.19-.7-2.43-.7-3.73Z"/><path class="cls-1" d="m185.22,34.39c-1.94,0-3.42-.62-4.43-1.87-1.01-1.25-1.51-3.1-1.51-5.54v-11.81h4.82v10.76c0,2.9,1.04,4.36,3.13,4.36.94,0,1.84-.28,2.72-.85.88-.56,1.59-1.42,2.14-2.57v-11.7h4.82v13.32c0,.5.09.86.27,1.08.18.22.47.34.88.36v4.1c-.48.1-.88.16-1.21.18-.32.02-.62.04-.88.04-.86,0-1.57-.2-2.11-.59-.54-.4-.86-.94-.95-1.64l-.11-1.51c-.84,1.3-1.92,2.27-3.24,2.92-1.32.65-2.77.97-4.36.97Z"/><path class="cls-1" d="m201.67,7.75h4.82v20.23c0,.7.17,1.24.5,1.62.34.38.82.58,1.44.58.29,0,.61-.05.95-.14.35-.1.68-.22.99-.36l.65,3.67c-.65.31-1.4.55-2.27.72-.86.17-1.64.25-2.34.25-1.51,0-2.68-.4-3.51-1.21-.83-.8-1.24-1.95-1.24-3.44V7.75Z"/><path class="cls-1" d="m218.27,34.39c-.91,0-1.76-.15-2.56-.45s-1.48-.72-2.05-1.26c-.58-.54-1.03-1.17-1.35-1.89-.32-.72-.49-1.51-.49-2.38s.2-1.71.59-2.47.95-1.4,1.66-1.93c.71-.53,1.55-.94,2.54-1.24.98-.3,2.06-.45,3.24-.45.84,0,1.66.07,2.47.22.8.14,1.52.35,2.14.61v-1.08c0-1.25-.35-2.21-1.06-2.88-.71-.67-1.76-1.01-3.15-1.01-1.01,0-1.99.18-2.95.54-.96.36-1.94.89-2.95,1.58l-1.48-3.06c2.42-1.61,5.04-2.41,7.85-2.41s4.82.67,6.32,2,2.25,3.26,2.25,5.78v5.87c0,.5.09.86.27,1.08.18.22.47.34.88.36v4.1c-.82.17-1.52.25-2.12.25-.91,0-1.61-.2-2.11-.61-.49-.41-.8-.95-.92-1.62l-.11-1.04c-.84,1.1-1.86,1.94-3.06,2.52-1.2.58-2.48.86-3.85.86Zm1.37-3.53c.82,0,1.59-.14,2.32-.43.73-.29,1.3-.67,1.71-1.15.53-.41.79-.86.79-1.37v-2.16c-.58-.22-1.2-.39-1.87-.52-.67-.13-1.32-.2-1.94-.2-1.25,0-2.27.28-3.06.85s-1.19,1.28-1.19,2.14c0,.82.31,1.49.94,2.03.62.54,1.39.81,2.3.81Z"/><path class="cls-1" d="m245.02,19.34c-1.46.02-2.77.31-3.92.85s-1.98,1.35-2.48,2.43v11.41h-4.82V15.16h4.43v4.03c.34-.65.73-1.23,1.19-1.75.46-.52.95-.97,1.48-1.35.53-.38,1.06-.68,1.6-.88.54-.2,1.06-.31,1.57-.31h.59c.13,0,.26.01.38.04v4.39Z"/><path class="cls-1" d="m254.84,34.39c-1.58,0-3.13-.25-4.64-.76-1.51-.5-2.81-1.22-3.89-2.16l1.8-3.02c1.15.82,2.27,1.43,3.37,1.85,1.09.42,2.18.63,3.26.63.96,0,1.72-.18,2.27-.54.55-.36.83-.88.83-1.55s-.32-1.16-.97-1.48c-.65-.31-1.7-.67-3.17-1.08-1.22-.34-2.27-.66-3.13-.97-.86-.31-1.56-.67-2.09-1.06-.53-.4-.91-.85-1.15-1.37-.24-.52-.36-1.13-.36-1.85,0-.96.19-1.82.56-2.59.37-.77.89-1.42,1.57-1.96.67-.54,1.46-.95,2.36-1.24s1.88-.43,2.93-.43c1.42,0,2.74.2,3.98.61,1.24.41,2.37,1.07,3.4,1.98l-1.94,2.92c-.96-.72-1.89-1.25-2.79-1.58s-1.79-.5-2.68-.5c-.82,0-1.5.17-2.05.5-.55.34-.83.88-.83,1.62,0,.34.07.61.2.83.13.22.34.41.63.58s.67.33,1.13.49c.47.16,1.05.32,1.75.49,1.3.34,2.41.67,3.33,1.01.92.34,1.68.72,2.27,1.15.59.43,1.02.93,1.3,1.49.28.56.41,1.24.41,2.03,0,1.85-.68,3.31-2.05,4.37-1.37,1.07-3.23,1.6-5.58,1.6Z"/><path class="cls-1" d="m265.5,34.03v-5.18h3.96v5.18h-3.96Z"/><path class="cls-1" d="m291.24,34.03h-4.82v-10.58c0-1.49-.28-2.59-.83-3.29-.55-.71-1.33-1.06-2.34-1.06-.43,0-.89.1-1.37.29-.48.19-.94.46-1.37.81-.43.35-.83.76-1.19,1.24-.36.48-.62,1.01-.79,1.58v11.02h-4.82V7.75h4.82v10.91c.7-1.22,1.64-2.17,2.83-2.83,1.19-.66,2.5-.99,3.94-.99,1.22,0,2.22.21,2.99.63.77.42,1.37.98,1.8,1.67.43.7.73,1.49.9,2.38.17.89.25,1.8.25,2.74v11.77Z"/><path class="cls-1" d="m304.2,34.39c-1.51,0-2.88-.26-4.1-.77-1.22-.52-2.27-1.22-3.13-2.11-.86-.89-1.53-1.92-2-3.1-.47-1.18-.7-2.41-.7-3.71s.23-2.61.68-3.8c.46-1.19,1.12-2.23,1.98-3.13.86-.9,1.91-1.61,3.15-2.14,1.24-.53,2.62-.79,4.16-.79s2.91.26,4.12.79c1.21.53,2.24,1.24,3.1,2.12.85.89,1.5,1.92,1.94,3.1.44,1.18.67,2.4.67,3.67,0,.31,0,.61-.02.9-.01.29-.04.53-.09.72h-14.58c.07.74.25,1.4.54,1.98.29.58.66,1.07,1.12,1.48.46.41.97.72,1.55.94.58.22,1.18.32,1.8.32.96,0,1.87-.23,2.72-.7.85-.47,1.43-1.09,1.75-1.85l4.14,1.15c-.7,1.44-1.81,2.62-3.33,3.55-1.52.92-3.34,1.39-5.45,1.39Zm4.9-11.38c-.12-1.42-.64-2.55-1.57-3.4-.92-.85-2.05-1.28-3.37-1.28-.65,0-1.25.11-1.82.34-.56.23-1.06.55-1.49.95-.43.41-.79.9-1.06,1.48-.28.58-.44,1.21-.49,1.91h9.79Z"/><path class="cls-1" d="m322.16,34.39c-.91,0-1.76-.15-2.56-.45s-1.48-.72-2.05-1.26c-.58-.54-1.03-1.17-1.35-1.89-.32-.72-.49-1.51-.49-2.38s.2-1.71.59-2.47.95-1.4,1.66-1.93c.71-.53,1.55-.94,2.54-1.24.98-.3,2.06-.45,3.24-.45.84,0,1.66.07,2.47.22.8.14,1.52.35,2.14.61v-1.08c0-1.25-.35-2.21-1.06-2.88-.71-.67-1.76-1.01-3.15-1.01-1.01,0-1.99.18-2.95.54-.96.36-1.94.89-2.95,1.58l-1.48-3.06c2.42-1.61,5.04-2.41,7.85-2.41s4.82.67,6.32,2,2.25,3.26,2.25,5.78v5.87c0,.5.09.86.27,1.08.18.22.47.34.88.36v4.1c-.82.17-1.52.25-2.12.25-.91,0-1.61-.2-2.11-.61-.49-.41-.8-.95-.92-1.62l-.11-1.04c-.84,1.1-1.86,1.94-3.06,2.52-1.2.58-2.48.86-3.85.86Zm1.37-3.53c.82,0,1.59-.14,2.32-.43.73-.29,1.3-.67,1.71-1.15.53-.41.79-.86.79-1.37v-2.16c-.58-.22-1.2-.39-1.87-.52-.67-.13-1.32-.2-1.94-.2-1.25,0-2.27.28-3.06.85s-1.19,1.28-1.19,2.14c0,.82.31,1.49.94,2.03.62.54,1.39.81,2.3.81Z"/><path class="cls-1" d="m337.64,7.75h4.82v20.23c0,.7.17,1.24.5,1.62.34.38.82.58,1.44.58.29,0,.61-.05.95-.14.35-.1.68-.22.99-.36l.65,3.67c-.65.31-1.4.55-2.27.72-.86.17-1.64.25-2.34.25-1.51,0-2.68-.4-3.51-1.21-.83-.8-1.24-1.95-1.24-3.44V7.75Z"/><path class="cls-1" d="m360.39,33.05c-.65.29-1.44.58-2.38.86s-1.92.43-2.95.43c-.67,0-1.3-.08-1.89-.25-.59-.17-1.1-.44-1.55-.81-.44-.37-.8-.85-1.06-1.44-.26-.59-.4-1.3-.4-2.14v-10.84h-2.48v-3.71h2.48v-6.12h4.82v6.12h3.96v3.71h-3.96v9.22c0,.67.17,1.15.52,1.42.35.28.77.41,1.28.41s1-.08,1.48-.25c.48-.17.86-.31,1.15-.43l.97,3.82Z"/><path class="cls-1" d="m380.44,34.03h-4.82v-10.58c0-1.49-.28-2.59-.83-3.29-.55-.71-1.33-1.06-2.34-1.06-.43,0-.89.1-1.37.29-.48.19-.94.46-1.37.81-.43.35-.83.76-1.19,1.24-.36.48-.62,1.01-.79,1.58v11.02h-4.82V7.75h4.82v10.91c.7-1.22,1.64-2.17,2.83-2.83,1.19-.66,2.5-.99,3.94-.99,1.22,0,2.22.21,2.99.63.77.42,1.37.98,1.8,1.67.43.7.73,1.49.9,2.38.17.89.25,1.8.25,2.74v11.77Z"/></g><g><path class="cls-1" d="m14.17,19.73c-4.57,0-8.28,3.72-8.28,8.28,0,1.09.89,1.98,1.98,1.98s1.98-.89,1.98-1.98c0-2.38,1.94-4.32,4.32-4.32,1.09,0,1.98-.89,1.98-1.98s-.89-1.98-1.98-1.98h0Z"/><path class="cls-1" d="m58.6,23.32s-5.99-16.97-6.01-17c-1.71-3.84-5.52-6.32-9.72-6.32-5.18,0-9.48,3.74-10.42,8.65h-5.5C26.03,3.73,21.71,0,16.53,0c-4.2,0-8.01,2.48-9.78,6.46-.1.22-5.96,16.86-5.96,16.86-.51,1.46-.8,3.01-.8,4.64,0,7.81,6.36,14.17,14.17,14.17,7.14,0,13.05-5.31,14.02-12.19h3.02c.97,6.88,6.88,12.19,14.02,12.19,7.81,0,14.17-6.36,14.17-14.17,0-1.63-.29-3.19-.8-4.64ZM16.53,3.96c3.67,0,6.66,3,6.65,6.68,0,1.09.89,1.97,1.98,1.97h9.07c1.09,0,1.98-.88,1.98-1.97,0-3.68,2.98-6.68,6.65-6.68,2.63,0,5.01,1.55,6.05,3.84l2.65,7.51c-1.91-.96-4.06-1.52-6.34-1.52-7.14,0-13.05,5.31-14.01,12.19h-3.02c-.97-6.88-6.88-12.19-14.01-12.19-2.28,0-4.43.56-6.34,1.52l2.63-7.44c1.08-2.37,3.46-3.91,6.07-3.91Zm-2.36,34.26c-5.63,0-10.21-4.58-10.21-10.21s4.58-10.21,10.21-10.21,10.21,4.58,10.21,10.21-4.58,10.21-10.21,10.21Zm31.06,0c-5.63,0-10.21-4.58-10.21-10.21s4.58-10.21,10.21-10.21,10.21,4.58,10.21,10.21-4.58,10.21-10.21,10.21Z"/><path class="cls-1" d="m45.23,19.73c-4.57,0-8.28,3.72-8.28,8.28,0,1.09.89,1.98,1.98,1.98s1.98-.89,1.98-1.98c0-2.38,1.94-4.32,4.32-4.32,1.09,0,1.98-.89,1.98-1.98s-.89-1.98-1.98-1.98h0Z"/></g></g></svg>