<svg id="_x31__px" height="512" viewBox="0 0 24 24" width="512" xmlns="http://www.w3.org/2000/svg"><path d="m12.5 14c-.059 0-.118-.01-.176-.032-.259-.097-.39-.385-.292-.644 1.53-4.082.3-9.132-1.001-12.651-.096-.259.036-.546.295-.642.261-.097.547.036.643.295 1.36 3.678 2.638 8.979.999 13.349-.075.201-.266.325-.468.325z"/><path d="m12.87 12.79c-.175 0-.345-.092-.437-.256-.135-.241-.049-.545.192-.68 2.99-1.675 7.53-1.996 11.038-.776.261.09.398.375.309.636-.091.261-.375.4-.637.308-3.259-1.13-7.462-.842-10.222.704-.076.044-.16.064-.243.064z"/><path d="m19.372 21.004c-4.688 0-8.778-1.294-9.733-1.621-.458-.155-.942-.224-1.441-.194-1.487.066-2.254-.478-2.637-.939-.38-.458-.765-1.303-.438-2.731.259-1.11.273-2.26.257-3.139-.039-2.81.563-8.07 1.638-12.011.073-.266.349-.423.614-.351s.423.347.35.613c-1.051 3.857-1.64 8.994-1.602 11.732.018.934.001 2.165-.282 3.38-.13.566-.195 1.352.232 1.867.433.521 1.227.6 1.82.58.615-.032 1.23.049 1.811.246.732.25 7.333 2.408 13.441 1.193.275-.057.534.122.588.393s-.122.534-.393.587c-1.416.283-2.847.395-4.225.395z"/><path d="m1.5 22c-.133 0-.265-.053-.363-.157-.189-.201-.181-.517.02-.707l1.059-1c.201-.19.517-.181.707.02.189.201.181.517-.02.707l-1.059 1c-.097.092-.221.137-.344.137z"/><path d="m5.5 24c-.276 0-.5-.224-.5-.5v-2c0-.276.224-.5.5-.5s.5.224.5.5v2c0 .276-.224.5-.5.5z"/><path d="m2.5 18h-2c-.276 0-.5-.224-.5-.5s.224-.5.5-.5h2c.276 0 .5.224.5.5s-.224.5-.5.5z"/></svg>