<svg id="Layer_1" enable-background="new 0 0 480.002 480.002" height="512" viewBox="0 0 480.002 480.002" width="512" xmlns="http://www.w3.org/2000/svg"><g><path fill="currentColor" d="m174.619 331.16c48.199 26.536 108.821 19.158 147.491-19.767 13.928-14.019 9.214-37.656-8.997-45.346-40.443-17.081-83.213-24.237-127.117-21.267-14.489.98-25.839 13.18-25.839 27.774v34.177c-.001 10.157 5.541 19.517 14.462 24.429zm1.537-58.606c0-6.209 4.796-11.396 10.919-11.811 41.324-2.798 81.651 3.925 119.813 20.042 7.782 3.287 9.84 13.322 3.871 19.331-34.176 34.401-87.174 39.736-128.423 17.027-3.812-2.098-6.18-6.088-6.18-10.412z"/><path fill="currentColor" d="m221.81 374.551c-6.82-22.115-36.653-27.108-49.654-9.644-14.929 20.053 16.011 40.212 8.457 104.839-.513 4.388 2.628 8.362 7.017 8.875 4.39.516 8.362-2.629 8.875-7.017 2.48-21.216 1.393-41.571-3.231-60.501-4.594-18.806-11.661-32.103-8.283-36.641 6.022-8.091 23.477-4.19 22.132 11.357-.593 6.854 7.207 11.217 12.737 7.114 11.749-8.72 24.008 1.481 21.773 13.62-.914 4.969-6.18 7.052-12.263 14.309-10.109 12.061-14.018 29.552-11.618 51.989.467 4.365 4.381 7.575 8.805 7.104 4.394-.47 7.574-4.412 7.104-8.805-1.919-17.948.763-31.41 7.971-40.01 5.383-6.422 13.635-10.265 15.737-21.691 3.995-21.716-14.829-40.15-35.559-34.898z"/><path fill="currentColor" d="m326.54 394.031c-1.141-14.338-7.8-24.875-18.269-28.907-20.788-8.007-46.534 13.133-36.504 44.569 6.046 18.95 9.504 40.215 10 61.495.102 4.354 3.663 7.813 7.995 7.813 4.533 0 8.105-3.734 8.001-8.187-.532-22.784-4.25-45.602-10.753-65.985-2.86-8.964-1.544-16.892 3.61-21.751 3.48-3.28 8.151-4.468 11.899-3.024 4.562 1.757 7.428 7.172 8.071 15.246 1.947 24.463 3.964 50.587 5.935 75.354.351 4.404 4.209 7.7 8.609 7.34 4.404-.351 7.69-4.205 7.34-8.609-1.985-24.954-3.921-50.07-5.934-75.354z"/><path fill="currentColor" d="m108.061 169.385c-1.444-4.175-6-6.389-10.176-4.944-4.175 1.445-6.389 6.001-4.944 10.176 2.564 7.409 5.665 14.657 9.216 21.543 1.42 2.754 4.218 4.335 7.117 4.335 5.925 0 9.865-6.313 7.104-11.668-3.204-6.211-6.002-12.752-8.317-19.442z"/><path d="m151.631 232.862c-6.524-5.452-12.577-11.504-17.989-17.988-2.832-3.392-7.877-3.847-11.268-1.015-3.392 2.832-3.846 7.876-1.015 11.268 6.023 7.216 12.756 13.949 20.011 20.012 3.404 2.844 8.447 2.368 11.269-1.008 2.834-3.39 2.382-8.435-1.008-11.269z"/><path d="m171.883 62.158c.698 4.355 4.793 7.332 9.165 6.634 4.363-.699 7.333-4.802 6.634-9.165-1.338-8.352-2.881-16.796-4.586-25.096-.889-4.328-5.117-7.117-9.446-6.227-4.328.889-7.116 5.118-6.227 9.446 1.658 8.073 3.158 16.285 4.46 24.408z"/><path d="m183.605 88.734c-4.397.424-7.619 4.333-7.194 8.731 1.008 10.448 1.74 21.095 2.169 31.869.171 4.306 3.716 7.682 7.988 7.682 4.556 0 8.18-3.785 7.999-8.318-.425-10.691-1.162-21.691-2.231-32.769-.423-4.398-4.328-7.622-8.731-7.195z"/><path d="m187.081 154.162c-4.419-.085-8.063 3.438-8.141 7.856-.328 18.396-1.568 36.999-3.687 55.291-.549 4.738 3.15 8.921 7.957 8.921 4.006 0 7.465-3.004 7.937-7.081 2.178-18.806 3.454-37.932 3.791-56.847.078-4.416-3.44-8.061-7.857-8.14z"/><path d="m245.605 36.293c.392 4.393 4.268 7.649 8.68 7.257 4.401-.393 7.65-4.279 7.257-8.68-.829-9.285-1.875-18.681-3.111-27.928-.585-4.38-4.612-7.456-8.989-6.87-4.379.585-7.455 4.61-6.87 8.989 1.204 9.016 2.225 18.178 3.033 27.232z"/><path d="m255.379 61.035c-4.415.159-7.865 3.868-7.706 8.284.653 18.069.519 36.341-.408 54.504-.225 4.413 3.17 8.172 7.583 8.397 4.443.219 8.173-3.192 8.397-7.583.926-18.189 1.105-36.882.418-55.896-.159-4.415-3.857-7.87-8.284-7.706z"/><path d="m239.794 234.817c4.326.944 8.582-1.802 9.522-6.109 5.018-22.98 8.807-46.494 11.262-69.888.461-4.394-2.727-8.33-7.121-8.791-4.389-.464-8.33 2.727-8.791 7.121-2.395 22.81-6.089 45.737-10.982 68.145-.941 4.316 1.794 8.58 6.11 9.522z"/><path d="m282.252 236.312c4.06 1.804 8.775-.046 10.56-4.062 8.337-18.757 15.132-38.286 20.225-58.273 1.091-4.281-1.495-8.637-5.776-9.728-4.282-1.091-8.637 1.495-9.728 5.776-4.881 19.15-11.379 37.809-19.342 55.727-1.795 4.037.023 8.765 4.061 10.56z"/><path d="m311.034 145.723c4.373.673 8.453-2.329 9.124-6.689 2.232-14.5 3.63-29.386 4.155-44.246.156-4.416-3.297-8.121-7.713-8.277-4.434-.162-8.121 3.298-8.277 7.713-.503 14.236-1.841 28.493-3.978 42.376-.673 4.366 2.322 8.451 6.689 9.123z"/><path d="m308.187 64.336c.195 4.437 3.957 7.839 8.343 7.642 4.414-.193 7.835-3.929 7.642-8.343-.34-7.753-.916-15.641-1.712-23.445-.448-4.396-4.377-7.603-8.77-7.147-4.396.448-7.596 4.375-7.147 8.77.764 7.499 1.317 15.077 1.644 22.523z"/><path d="m381.269 110.199c-4.311-.978-8.594 1.725-9.57 6.034-.456 2.012-.942 4.056-1.445 6.075-1.258 5.047 2.566 9.937 7.768 9.937 3.586 0 6.85-2.43 7.756-6.067.531-2.129 1.044-4.286 1.525-6.409.977-4.309-1.725-8.594-6.034-9.57z"/><path d="m371.021 146.279c-4.173-1.449-8.732.758-10.182 4.933-1.521 4.377-3.169 8.779-4.9 13.081-2.125 5.283 1.798 10.988 7.419 10.988 3.168 0 6.169-1.896 7.424-5.016 1.827-4.54 3.566-9.185 5.17-13.804 1.452-4.174-.757-8.733-4.931-10.182z"/><path d="m353.029 190.249c-3.857-2.154-8.731-.773-10.886 3.083-7.558 13.531-16.275 26.551-25.91 38.698-4.199 5.294-.322 12.972 6.262 12.972 2.358 0 4.694-1.038 6.273-3.029 10.167-12.819 19.367-26.559 27.343-40.838 2.155-3.858.775-8.731-3.082-10.886z"/></g></svg>