<svg height="512pt" viewBox="-43 0 512 512.00088" width="512pt" xmlns="http://www.w3.org/2000/svg"><path d="m0 187.90625c1.0625 37.257812 8.457031 74.0625 21.863281 108.839844 6.0625 16.617187 13.214844 32.816406 21.417969 48.488281 3.652344 10.488281 60.339844 166.765625 204.527344 166.765625 46.292968 0 84.652344-30.4375 110.933594-88.039062 21.476562-47.078126 33.792968-111.339844 33.792968-176.324219v-68.265625c-.023437-42.417969-34.382812-76.8125-76.800781-76.886719h-2.210937c26.820312-12.171875 56.070312-18.058594 85.511718-17.203125.699219.078125 1.144532.105469 1.476563.121094h.554687c14.363282 0 25.601563-15.035156 25.601563-34.21875s-11.238281-34.132813-25.601563-34.132813c-1.144531-.007812-2.289062.109375-3.414062.339844-.074219 0-.160156 0-.238282 0-38.816406 3.804687-77.121093 11.726563-114.261718 23.636719-19.335938-16.144532-50.628906-25.179688-70.875-29.644532-.671875-1.96875-1.691406-3.800781-3.015625-5.410156-3.234375-3.8125-7.992188-5.9999998-12.996094-5.972656h-27.988281c-6.359375-.046875-12.597656 1.730469-17.980469 5.121094-16.800781 10.691406-27.953125 30.445312-35.359375 50.976562-1.828125-11.714844-2.859375-22.925781-3.414062-31.980468-.789063-13.554688-12.015626-24.132813-25.59375-24.117188h-16.125c-7.078126.0117188-13.835938 2.957031-18.667969 8.128906-4.828125 5.171875-7.304688 12.117188-6.832031 19.179688 2.3125 31.699218.078124 63.566406-6.628907 94.632812-23.347656 13.769532-37.675781 38.859375-37.675781 65.964844zm375.46875-8.535156v59.5625c-48.15625-2.199219-58.027344-23.363282-68.429688-45.703125-2.789062-6.425781-6.066406-12.632813-9.796874-18.5625-7.800782-12.144531-17.636719-22.851563-29.074219-31.65625 5.28125-8.789063 11.902343-16.695313 19.628906-23.433594h27.9375c32.988281.0625 59.703125 26.804687 59.734375 59.792969zm25.34375-111.0625c-3.398438-.324219-8.277344-7.148438-8.277344-17.109375 0-9.957031 4.691406-16.332031 8.53125-17.066407 3.414063 0 8.535156 6.828126 8.535156 17.066407 0 10.242187-5.121093 17.109375-8.789062 17.109375zm-241.332031-48.835938c2.644531-1.617187 5.695312-2.453125 8.796875-2.40625l27.8125.1875c-9.636719 9.101563-17.0625 20.285156-21.71875 32.691406l-.050782.113282c-8.117187 24.589844-8.765624 51.035156-1.859374 75.996094.535156 2.132812 1.089843 4.097656 1.636718 5.972656l.058594.179687c1.59375 5.585938 3.53125 11.0625 5.796875 16.410157 1.375 3.0625 4.421875 5.035156 7.78125 5.035156 1.203125-.003906 2.390625-.261719 3.488281-.75 4.289063-1.941406 6.195313-6.984375 4.269532-11.273438-1.671876-3.976562-3.128907-8.039062-4.371094-12.167968 7.199218-16.296876 18.886718-30.207032 33.699218-40.109376 4.652344-3.121093 7.511719-8.296874 7.679688-13.898437.164062-5.460937-2.359375-10.652344-6.75-13.902344-9.4375-6.785156-19.976562-11.878906-31.15625-15.058593 3.660156-6.476563 8.3125-12.335938 13.789062-17.367188.222657-.207031.433594-.421875.632813-.648438.070313-.085937.101563-.179687.171875-.265624 18.59375 4.132812 46.546875 12.203124 62.941406 25.882812 3.101563 2.71875 7.078125 4.230469 11.203125 4.265625 2.101563 0 4.179688-.414063 6.117188-1.21875 28.722656-9.476563 58.296875-16.152344 88.304687-19.925781-1.507812 4.507812-2.28125 9.230468-2.285156 13.984375-.03125 6.023437 1.1875 11.984375 3.582031 17.511719-25.769531 1.785156-67.789062 9.039062-100.011719 35.730468-.203124.167969-.375.355469-.570312.527344-12.0625 10.039062-21.9375 22.449219-29.011719 36.453125l-.042969.054687v.058594l-.085937.152344c-4.4375 8.585938-7.832031 17.675781-10.113281 27.070312-1.132813 4.574219 1.65625 9.203126 6.234375 10.335938 4.574219 1.132812 9.203125-1.65625 10.335937-6.234375 1.234375-4.867187 2.800782-9.644531 4.6875-14.300781 8.773438 7.316406 16.394532 15.917968 22.59375 25.515625 3.242188 5.214843 6.09375 10.664062 8.535156 16.296875 11.09375 23.722656 24.789063 52.90625 83.796876 55.46875-1.945313 120.207031-45.660157 239.09375-127.589844 239.09375-56.765625 0-105.625-25.90625-145.230469-77.003906-18.046875-23.507813-32.484375-49.570313-42.84375-77.335938.238281-52.054688 12.953125-184.058594 68.164063-209.300781.851562 1.035156 1.765624 2 2.609374 2.84375 2.164063 2.152343 5.3125 2.988281 8.257813 2.191406s5.242187-3.105469 6.023437-6.054687c.78125-2.949219-.066406-6.09375-2.230468-8.246094-1.835938-1.886719-3.53125-3.902344-5.078125-6.03125-.195313-.269532-.40625-.523438-.632813-.761719-5.566406-7.742187-10.203125-16.109375-13.8125-24.933594 4.582032-21.605469 15.113282-57.25 36.445313-70.828125zm26.214843 85.019532c-2.097656-14.039063-1.304687-28.359376 2.328126-42.078126 9.816406 2.613282 19.089843 6.945313 27.390624 12.800782-11.714843 7.734375-21.808593 17.679687-29.71875 29.277344zm-122.027343-84.738282c1.582031-1.707031 3.804687-2.683594 6.136719-2.6875h16.125c4.523437-.007812 8.269531 3.515625 8.535156 8.03125 1.140625 23.007813 4.96875 45.800782 11.410156 67.917969.046875.238281.117188.476563.203125.707031.050781.171875.152344.382813.214844.554688l.066406.152344c2.992187 8.011718 6.8125 15.6875 11.402344 22.90625-54.878907 28.59375-69.675781 133.484374-73.644531 189.386718-2.03125-4.890625-4.128907-10.128906-6.246094-15.871094-12.710938-32.890624-19.742188-67.703124-20.804688-102.945312-.03125-22.289062 12.351563-42.734375 32.121094-53.027344.117188-.070312.203125-.171875.324219-.238281 3.902343-2.03125 8.03125-3.605469 12.296875-4.6875 3.042968-.660156 5.484375-2.921875 6.371094-5.910156.886718-2.984375.074218-6.214844-2.113282-8.425781-2.191406-2.214844-5.410156-3.0625-8.40625-2.207032-.296875.074219-.582031.195313-.851562.273438 5.023437-28.875 6.546875-58.246094 4.53125-87.484375-.171875-2.375.660156-4.707031 2.285156-6.445313zm0 0"/><path d="m338.636719 349.6875c.578125.121094 1.167969.179688 1.757812.179688 4.046875-.011719 7.527344-2.863282 8.335938-6.828126.609375-2.886718 1.179687-5.796874 1.707031-8.71875.785156-4.597656-2.265625-8.972656-6.847656-9.828124-4.585938-.851563-9.003906 2.132812-9.925782 6.703124-.519531 2.8125-1.070312 5.59375-1.65625 8.347657-.476562 2.226562-.046874 4.546875 1.199219 6.453125 1.246094 1.90625 3.199219 3.234375 5.429688 3.691406zm0 0"/><path d="m247.808594 477.867188c38.910156 0 71.519531-35.457032 91.835937-99.839844 1.414063-4.496094-1.085937-9.285156-5.582031-10.699219s-9.285156 1.082031-10.699219 5.578125c-17.628906 55.851562-45.175781 87.894531-75.554687 87.894531-4.714844 0-8.535156 3.820313-8.535156 8.535157 0 4.710937 3.820312 8.53125 8.535156 8.53125zm0 0"/></svg>